<svg width="283" height="226" viewBox="0 0 283 226" fill="none" xmlns="http://www.w3.org/2000/svg">
<path d="M142.001 225.312C180.835 225.312 216.003 218.351 241.469 207.089C254.202 201.458 264.519 194.747 271.655 187.286C278.792 179.823 282.756 171.6 282.756 162.952C282.756 154.304 278.792 146.081 271.655 138.618C264.519 131.157 254.202 124.446 241.469 118.815C216.003 107.553 180.835 100.592 142.001 100.592C103.166 100.592 67.9985 107.553 42.5321 118.815C29.7991 124.446 19.4825 131.157 12.3463 138.618C5.20917 146.081 1.24531 154.304 1.24531 162.952C1.24531 171.6 5.20917 179.823 12.3463 187.286C19.4825 194.747 29.7991 201.458 42.5321 207.089C67.9985 218.351 103.166 225.312 142.001 225.312Z" fill="#484C5D" fill-opacity="0.04" stroke="#484C5D" stroke-width="0.4"/>
<path d="M1 165.172V139.42M20.571 194.92V170.5M58.3785 213.124V189.592M115.757 224.668V201.136M173.58 224.224V200.692M228.29 212.236V188.704M264.319 194.032C264.319 184.842 264.319 179.69 264.319 170.5M282.555 166.06V142.528" stroke="#484C5D" stroke-width="0.4"/>
<path d="M142.001 201.336C180.835 201.336 216.003 194.375 241.469 183.113C254.202 177.482 264.519 170.771 271.655 163.31C278.792 155.847 282.756 147.624 282.756 138.976C282.756 130.328 278.792 122.105 271.655 114.642C264.519 107.181 254.202 100.47 241.469 94.8393C216.003 83.5769 180.835 76.616 142.001 76.616C103.166 76.616 67.9985 83.5769 42.5321 94.8393C29.7991 100.47 19.4825 107.181 12.3463 114.642C5.20917 122.105 1.24531 130.328 1.24531 138.976C1.24531 147.624 5.20917 155.847 12.3463 163.31C19.4825 170.771 29.7991 177.482 42.5321 183.113C67.9985 194.375 103.166 201.336 142.001 201.336Z" fill="#484C5D" fill-opacity="0.11" stroke="#484C5D" stroke-width="0.4"/>
<path d="M41.9207 94.576L25.0185 103.9L13.3933 113.245C13.0487 113.576 12.717 113.914 12.3919 114.252C11.7936 114.87 11.2148 115.494 10.6621 116.118C9.8102 117.087 9.01033 118.068 8.269 119.056C8.12594 119.245 7.98287 119.44 7.84631 119.628C7.3846 120.265 6.9424 120.902 6.52621 121.546C2.93009 127.065 1.01172 132.902 1.01172 138.934V73.8983L1.10276 59.9095L41.9207 94.576Z" fill="url(#paint0_linear_1228_9031)" fill-opacity="0.07"/>
<path d="M173.379 4V200.441C163.287 201.461 152.784 202.001 141.996 202.001C132.99 202.001 124.178 201.624 115.64 200.909C94.4791 199.128 74.9963 195.253 58.3228 189.78C43.1904 184.82 30.3731 178.547 20.7228 171.332C20.4301 171.111 20.1375 170.89 19.8514 170.669C19.5978 170.474 19.3442 170.279 19.0905 170.077C18.954 169.967 18.8109 169.856 18.6743 169.746C18.4077 169.531 18.1411 169.317 17.881 169.102C16.5999 168.056 15.3904 166.99 14.2458 165.904C14.2133 165.878 14.1873 165.846 14.1548 165.82C13.8947 165.573 13.6346 165.319 13.381 165.066C13.381 165.066 13.3766 165.061 13.3679 165.053C13.3159 165.001 13.2704 164.955 13.2184 164.91C12.9518 164.643 12.6851 164.37 12.425 164.104C12.1779 163.844 11.9308 163.59 11.6902 163.337C11.4756 163.109 11.2675 162.875 11.0529 162.641C10.8318 162.388 10.6107 162.141 10.3896 161.887C10.162 161.627 9.9409 161.367 9.7263 161.1C9.60925 160.97 9.5052 160.834 9.39465 160.704C9.26459 160.548 9.14104 160.392 9.01748 160.236C8.8354 160.008 8.65982 159.781 8.48424 159.553C8.04854 158.981 7.62585 158.409 7.22917 157.837C7.07961 157.616 6.92353 157.389 6.77397 157.168C6.53986 156.817 6.31226 156.466 6.09766 156.108C5.88306 155.77 5.68147 155.432 5.48639 155.094C5.47338 155.068 5.46037 155.049 5.44086 155.023C5.40835 154.964 5.37583 154.912 5.34332 154.854C5.21976 154.633 5.09621 154.412 4.97916 154.197C4.95314 154.152 4.92713 154.1 4.90112 154.054C4.86861 153.989 4.83609 153.931 4.80358 153.872C4.628 153.541 4.45892 153.216 4.29635 152.884C4.1858 152.663 4.08175 152.442 3.9777 152.221C3.87366 152.006 3.77611 151.792 3.67857 151.577C3.67857 151.571 3.67857 151.564 3.67857 151.558C1.92277 147.612 1.00586 143.537 1.00586 139.363V74.3273C3.81513 75.5364 8.86141 77.7075 13.3875 79.6576C16.2878 80.9057 18.9735 82.0627 20.7293 82.8168L58.3293 55.8403L115.646 65.2333L173.379 4Z" fill="url(#paint1_linear_1228_9031)" fill-opacity="0.1"/>
<path d="M41.4756 94.132L1.10251 59.9095L1 74.152" stroke="url(#paint2_linear_1228_9031)" stroke-width="0.4" stroke-linecap="round" stroke-linejoin="round"/>
<path d="M173.381 4L115.648 65.2333L58.3312 55.8403L20.7312 82.8168C18.9754 82.0627 16.2897 80.9057 13.3894 79.6576C8.86336 77.7075 3.81708 75.5364 1.00781 74.3273" stroke="#647DFA" stroke-width="0.4" stroke-linecap="round" stroke-linejoin="round"/>
<path d="M173.381 4L115.648 65.2333L58.3312 55.8403L20.7312 82.8168C18.9754 82.0627 16.2897 80.9057 13.3894 79.6576C8.86336 77.7075 3.81708 75.5364 1.00781 74.3273" stroke="url(#paint3_linear_1228_9031)" stroke-width="0.4" stroke-linecap="round" stroke-linejoin="round"/>
<ellipse cx="173.136" cy="4" rx="3.55836" ry="3.552" fill="#19FB9B" fill-opacity="0.14"/>
<ellipse cx="173.136" cy="4" rx="0.88959" ry="0.888" fill="#19FB9B"/>
<path d="M158.808 91V104.008L157.208 104.726L72.6274 142.82C71.3917 143.374 70.839 144.059 70.839 144.731V147.677L58.834 153.087C54.9841 154.82 48.3183 153.568 48.2207 151.083V135.769C48.3117 135.664 48.4158 135.565 48.5394 135.46C49.918 137.351 55.4588 138.128 58.834 136.606L157.208 92.2981C157.56 92.14 157.865 91.9621 158.119 91.771C158.438 91.5338 158.672 91.2702 158.808 91Z" fill="url(#paint4_linear_1228_9031)" fill-opacity="0.27"/>
<path d="M235.896 125.878V142.359C235.643 142.84 235.129 143.268 234.355 143.617L136.078 187.873C132.235 189.606 125.569 188.354 125.465 185.876H125.471V169.475C125.497 169.751 125.608 170.008 125.784 170.252C127.169 172.137 132.709 172.914 136.078 171.392L234.355 127.137C234.758 126.952 235.09 126.748 235.35 126.524C235.591 126.326 235.773 126.109 235.896 125.878Z" fill="url(#paint5_linear_1228_9031)" fill-opacity="0.27"/>
<path d="M213.252 100.904V114.235L211.477 115.032L211.21 115.151L126.792 153.166C125.634 153.686 124.964 154.424 125.062 155.156L125.055 155.162L125.14 158.055L113.096 163.478C111.951 163.999 110.41 164.256 108.661 164.256L77.0745 164.071H77.068C73.3481 164.045 70.8769 162.668 70.8444 161.244V147.677L70.8379 144.731C70.8379 144.83 70.8509 144.929 70.8704 145.021C70.8899 145.113 70.9224 145.205 70.968 145.298C71.0135 145.397 71.0655 145.489 71.1305 145.581C71.1761 145.654 71.2346 145.719 71.2931 145.785C71.3516 145.851 71.4102 145.917 71.4817 145.983C71.5793 146.069 71.6768 146.154 71.7939 146.233C72.002 146.392 72.2426 146.537 72.5157 146.668C72.6068 146.714 72.6978 146.761 72.7954 146.8C73.8619 147.275 75.3316 147.584 77.068 147.597H77.0745L98.3336 147.723L108.661 147.782C110.41 147.782 111.951 147.518 113.096 146.998L185.763 114.274L211.477 102.696C212.628 102.176 213.187 101.543 213.252 100.904Z" fill="url(#paint6_linear_1228_9031)" fill-opacity="0.27"/>
<path d="M58.834 136.265V152.646" stroke="#9349FB" stroke-width="0.4"/>
<path d="M48.2207 134.273V150.661" stroke="#9945FF" stroke-width="0.4"/>
<path d="M77.0684 147.195V163.582" stroke="#9746FD" stroke-width="0.4"/>
<path d="M70.8379 144.456V160.824" stroke="#9945FF" stroke-width="0.4"/>
<path d="M108.662 147.371V163.759" stroke="#8A50F5" stroke-width="0.4"/>
<path d="M113.096 146.598V162.986" stroke="#8851F3" stroke-width="0.4"/>
<path d="M125.473 168.864V185.252" stroke="#9945FE" stroke-width="0.4"/>
<path d="M136.078 170.856V187.244" stroke="#9449FB" stroke-width="0.4"/>
<path d="M234.355 126.842V143.23" stroke="#24E8B0" stroke-width="0.4"/>
<path d="M157.207 92.2055V108.593" stroke="#24E8B0" stroke-width="0.4" stroke-miterlimit="10"/>
<path d="M211.477 102.545V118.927" stroke="#23E9AF" stroke-width="0.4" stroke-miterlimit="10"/>
<path d="M213.252 100.495V116.614" stroke="#22EAAD" stroke-width="0.4" stroke-miterlimit="10"/>
<path d="M158.938 90.5959V106.899C159.036 107.633 158.366 108.367 157.208 108.885L58.8339 152.938C54.9905 154.661 48.3247 153.416 48.2271 150.946L48.2271 137L48.2279 135C48.1368 134.273 48.3897 135.331 49.5473 134.807L147.824 90.7998C151.668 89.0765 157.909 85.0362 158 87.5L158.938 90.5959Z" fill="url(#paint7_linear_1228_9031)" fill-opacity="0.22" stroke="url(#paint8_linear_1228_9031)" stroke-width="0.4"/>
<path d="M211.477 119.218L113.096 163.271C111.952 163.782 110.41 164.044 108.654 164.044L77.0682 163.861C71.5535 163.815 68.7831 160.833 72.6265 159.11L171.008 115.057C172.152 114.546 173.693 114.284 175.449 114.284L207.035 114.468C212.55 114.514 215.327 117.495 211.484 119.218H211.477Z" fill="url(#paint9_linear_1228_9031)" fill-opacity="0.22" stroke="url(#paint10_linear_1228_9031)" stroke-width="0.4"/>
<path d="M236.085 124.616V141.53C236.085 142.316 235.5 143.004 234.356 143.515L136.079 187.529C132.235 189.252 125.569 188.007 125.465 185.543L125.466 169C125.369 168.266 125.628 169.922 126.785 169.404L225.062 125.391C228.906 123.667 235.902 122.03 236 124.5L236.085 124.616Z" fill="url(#paint11_linear_1228_9031)" fill-opacity="0.22" stroke="url(#paint12_linear_1228_9031)" stroke-width="0.4"/>
<path d="M158.425 76.119L158.938 90.2267C159.036 90.9606 158.366 91.6944 157.208 92.2121L58.834 136.265C54.9905 137.988 48.3247 136.743 48.2272 134.273L47.811 120.126V120.113C47.7199 119.386 48.3898 118.658 49.5473 118.134L147.824 74.1271C151.668 72.4037 158.334 73.6487 158.425 76.1125V76.119Z" fill="url(#paint13_linear_1228_9031)" stroke="url(#paint14_linear_1228_9031)" stroke-width="0.4"/>
<path d="M211.477 102.545L113.096 146.598C111.952 147.109 110.41 147.371 108.654 147.371L77.0682 147.188C71.5535 147.142 68.7831 144.161 72.6265 142.437L171.008 98.3846C172.152 97.8735 173.693 97.6114 175.449 97.6114L207.035 97.7949C212.55 97.8407 215.327 100.822 211.484 102.545H211.477Z" fill="url(#paint15_linear_1228_9031)" stroke="url(#paint16_linear_1228_9031)" stroke-width="0.4"/>
<path d="M235.676 110.71L236.086 124.857C236.086 125.643 235.501 126.331 234.356 126.842L136.079 170.856C132.236 172.579 125.57 171.334 125.466 168.87L125.056 154.717C124.959 153.983 125.629 153.249 126.786 152.731L225.063 108.718C228.906 106.995 235.572 108.24 235.67 110.71H235.676Z" fill="url(#paint17_linear_1228_9031)" stroke="url(#paint18_linear_1228_9031)" stroke-width="0.4"/>
<defs>
<linearGradient id="paint0_linear_1228_9031" x1="1.01172" y1="120.872" x2="52.259" y2="119.096" gradientUnits="userSpaceOnUse">
<stop stop-color="#9945FF"/>
<stop offset="0.00999999" stop-color="#9846FF"/>
<stop offset="0.24" stop-color="#8752F3"/>
<stop offset="0.465" stop-color="#5497D5"/>
<stop offset="0.6" stop-color="#43B4CA"/>
<stop offset="0.735" stop-color="#28E0B9"/>
<stop offset="1" stop-color="#19FB9B"/>
</linearGradient>
<linearGradient id="paint1_linear_1228_9031" x1="1.00586" y1="156.743" x2="216.469" y2="144.191" gradientUnits="userSpaceOnUse">
<stop stop-color="#9945FF"/>
<stop offset="0.00999999" stop-color="#9846FF"/>
<stop offset="0.24" stop-color="#8752F3"/>
<stop offset="0.465" stop-color="#5497D5"/>
<stop offset="0.6" stop-color="#43B4CA"/>
<stop offset="0.735" stop-color="#28E0B9"/>
<stop offset="1" stop-color="#19FB9B"/>
</linearGradient>
<linearGradient id="paint2_linear_1228_9031" x1="1" y1="86.3097" x2="51.4493" y2="82.3169" gradientUnits="userSpaceOnUse">
<stop stop-color="#9945FF"/>
<stop offset="0.24" stop-color="#8752F3"/>
<stop offset="0.465" stop-color="#5497D5"/>
<stop offset="0.6" stop-color="#43B4CA"/>
<stop offset="0.735" stop-color="#28E0B9"/>
<stop offset="1" stop-color="#19FB9B"/>
</linearGradient>
<linearGradient id="paint3_linear_1228_9031" x1="1.00782" y1="64.8015" x2="212.668" y2="33.825" gradientUnits="userSpaceOnUse">
<stop stop-color="#9945FF"/>
<stop offset="0.24" stop-color="#8752F3"/>
<stop offset="0.465" stop-color="#5497D5"/>
<stop offset="0.6" stop-color="#43B4CA"/>
<stop offset="0.735" stop-color="#28E0B9"/>
<stop offset="1" stop-color="#19FB9B"/>
</linearGradient>
<linearGradient id="paint4_linear_1228_9031" x1="48.2207" y1="139.516" x2="185.028" y2="123.418" gradientUnits="userSpaceOnUse">
<stop stop-color="#9945FF"/>
<stop offset="0.00999999" stop-color="#9846FF"/>
<stop offset="0.24" stop-color="#8752F3"/>
<stop offset="0.465" stop-color="#5497D5"/>
<stop offset="0.6" stop-color="#43B4CA"/>
<stop offset="0.735" stop-color="#28E0B9"/>
<stop offset="1" stop-color="#19FB9B"/>
</linearGradient>
<linearGradient id="paint5_linear_1228_9031" x1="125.465" y1="174.323" x2="262.078" y2="158.247" gradientUnits="userSpaceOnUse">
<stop stop-color="#9945FF"/>
<stop offset="0.00999999" stop-color="#9846FF"/>
<stop offset="0.24" stop-color="#8752F3"/>
<stop offset="0.465" stop-color="#5497D5"/>
<stop offset="0.6" stop-color="#43B4CA"/>
<stop offset="0.735" stop-color="#28E0B9"/>
<stop offset="1" stop-color="#19FB9B"/>
</linearGradient>
<linearGradient id="paint6_linear_1228_9031" x1="70.8379" y1="149.775" x2="245.504" y2="123.5" gradientUnits="userSpaceOnUse">
<stop stop-color="#9945FF"/>
<stop offset="0.00999999" stop-color="#9846FF"/>
<stop offset="0.24" stop-color="#8752F3"/>
<stop offset="0.465" stop-color="#5497D5"/>
<stop offset="0.6" stop-color="#43B4CA"/>
<stop offset="0.735" stop-color="#28E0B9"/>
<stop offset="1" stop-color="#19FB9B"/>
</linearGradient>
<linearGradient id="paint7_linear_1228_9031" x1="47.7754" y1="139.169" x2="185.303" y2="123.121" gradientUnits="userSpaceOnUse">
<stop stop-color="#9945FF"/>
<stop offset="0.00999999" stop-color="#9846FF"/>
<stop offset="0.24" stop-color="#8752F3"/>
<stop offset="0.465" stop-color="#5497D5"/>
<stop offset="0.6" stop-color="#43B4CA"/>
<stop offset="0.735" stop-color="#28E0B9"/>
<stop offset="1" stop-color="#19FB9B"/>
</linearGradient>
<linearGradient id="paint8_linear_1228_9031" x1="47.7754" y1="139.169" x2="185.303" y2="123.121" gradientUnits="userSpaceOnUse">
<stop stop-color="#9945FF"/>
<stop offset="0.00999999" stop-color="#9846FF"/>
<stop offset="0.24" stop-color="#8752F3"/>
<stop offset="0.465" stop-color="#5497D5"/>
<stop offset="0.6" stop-color="#43B4CA"/>
<stop offset="0.735" stop-color="#28E0B9"/>
<stop offset="1" stop-color="#19FB9B"/>
</linearGradient>
<linearGradient id="paint9_linear_1228_9031" x1="70.8418" y1="152.671" x2="243.153" y2="119.667" gradientUnits="userSpaceOnUse">
<stop stop-color="#9945FF"/>
<stop offset="0.00999999" stop-color="#9846FF"/>
<stop offset="0.24" stop-color="#8752F3"/>
<stop offset="0.465" stop-color="#5497D5"/>
<stop offset="0.6" stop-color="#43B4CA"/>
<stop offset="0.735" stop-color="#28E0B9"/>
<stop offset="1" stop-color="#19FB9B"/>
</linearGradient>
<linearGradient id="paint10_linear_1228_9031" x1="70.8418" y1="152.671" x2="243.153" y2="119.667" gradientUnits="userSpaceOnUse">
<stop stop-color="#9945FF"/>
<stop offset="0.00999999" stop-color="#9846FF"/>
<stop offset="0.24" stop-color="#8752F3"/>
<stop offset="0.465" stop-color="#5497D5"/>
<stop offset="0.6" stop-color="#43B4CA"/>
<stop offset="0.735" stop-color="#28E0B9"/>
<stop offset="1" stop-color="#19FB9B"/>
</linearGradient>
<linearGradient id="paint11_linear_1228_9031" x1="125.047" y1="173.76" x2="262.447" y2="157.742" gradientUnits="userSpaceOnUse">
<stop stop-color="#9945FF"/>
<stop offset="0.00999999" stop-color="#9846FF"/>
<stop offset="0.24" stop-color="#8752F3"/>
<stop offset="0.465" stop-color="#5497D5"/>
<stop offset="0.6" stop-color="#43B4CA"/>
<stop offset="0.735" stop-color="#28E0B9"/>
<stop offset="1" stop-color="#19FB9B"/>
</linearGradient>
<linearGradient id="paint12_linear_1228_9031" x1="125.047" y1="173.76" x2="262.447" y2="157.742" gradientUnits="userSpaceOnUse">
<stop stop-color="#9945FF"/>
<stop offset="0.00999999" stop-color="#9846FF"/>
<stop offset="0.24" stop-color="#8752F3"/>
<stop offset="0.465" stop-color="#5497D5"/>
<stop offset="0.6" stop-color="#43B4CA"/>
<stop offset="0.735" stop-color="#28E0B9"/>
<stop offset="1" stop-color="#19FB9B"/>
</linearGradient>
<linearGradient id="paint13_linear_1228_9031" x1="47.8027" y1="122.496" x2="185.33" y2="106.448" gradientUnits="userSpaceOnUse">
<stop stop-color="#9945FF"/>
<stop offset="0.00999999" stop-color="#9846FF"/>
<stop offset="0.24" stop-color="#8752F3"/>
<stop offset="0.465" stop-color="#5497D5"/>
<stop offset="0.6" stop-color="#43B4CA"/>
<stop offset="0.735" stop-color="#28E0B9"/>
<stop offset="1" stop-color="#19FB9B"/>
</linearGradient>
<linearGradient id="paint14_linear_1228_9031" x1="47.8027" y1="122.496" x2="185.33" y2="106.448" gradientUnits="userSpaceOnUse">
<stop stop-color="#9945FF"/>
<stop offset="0.00999999" stop-color="#9846FF"/>
<stop offset="0.24" stop-color="#8752F3"/>
<stop offset="0.465" stop-color="#5497D5"/>
<stop offset="0.6" stop-color="#43B4CA"/>
<stop offset="0.735" stop-color="#28E0B9"/>
<stop offset="1" stop-color="#19FB9B"/>
</linearGradient>
<linearGradient id="paint15_linear_1228_9031" x1="70.8418" y1="135.998" x2="243.153" y2="102.994" gradientUnits="userSpaceOnUse">
<stop stop-color="#9945FF"/>
<stop offset="0.00999999" stop-color="#9846FF"/>
<stop offset="0.24" stop-color="#8752F3"/>
<stop offset="0.465" stop-color="#5497D5"/>
<stop offset="0.6" stop-color="#43B4CA"/>
<stop offset="0.735" stop-color="#28E0B9"/>
<stop offset="1" stop-color="#19FB9B"/>
</linearGradient>
<linearGradient id="paint16_linear_1228_9031" x1="70.8418" y1="135.998" x2="243.153" y2="102.994" gradientUnits="userSpaceOnUse">
<stop stop-color="#9945FF"/>
<stop offset="0.00999999" stop-color="#9846FF"/>
<stop offset="0.24" stop-color="#8752F3"/>
<stop offset="0.465" stop-color="#5497D5"/>
<stop offset="0.6" stop-color="#43B4CA"/>
<stop offset="0.735" stop-color="#28E0B9"/>
<stop offset="1" stop-color="#19FB9B"/>
</linearGradient>
<linearGradient id="paint17_linear_1228_9031" x1="125.047" y1="157.087" x2="262.447" y2="141.069" gradientUnits="userSpaceOnUse">
<stop stop-color="#9945FF"/>
<stop offset="0.00999999" stop-color="#9846FF"/>
<stop offset="0.24" stop-color="#8752F3"/>
<stop offset="0.465" stop-color="#5497D5"/>
<stop offset="0.6" stop-color="#43B4CA"/>
<stop offset="0.735" stop-color="#28E0B9"/>
<stop offset="1" stop-color="#19FB9B"/>
</linearGradient>
<linearGradient id="paint18_linear_1228_9031" x1="125.047" y1="157.087" x2="262.447" y2="141.069" gradientUnits="userSpaceOnUse">
<stop stop-color="#9945FF"/>
<stop offset="0.00999999" stop-color="#9846FF"/>
<stop offset="0.24" stop-color="#8752F3"/>
<stop offset="0.465" stop-color="#5497D5"/>
<stop offset="0.6" stop-color="#43B4CA"/>
<stop offset="0.735" stop-color="#28E0B9"/>
<stop offset="1" stop-color="#19FB9B"/>
</linearGradient>
</defs>
</svg>
